# xmcd
#
# Track frame offsets: 
#        150
#        21886
#        44005
#        66838
#        92050
#        113389
#        132879
#        153654
#        173964
#        192628
#        211682
#        229444
#        255649
#        271741
#        294014
#
# Disc length: 4234 seconds
#
# Revision: 2
# Processed by: cddbd v1.5.2PL0 Copyright (c) Steve Scherf et al.
# Submitted via: ExactAudioCopyFreeDBPlugin 1.0
#
DISCID=d310880f
DTITLE=南歌子 - DTS51流行一品
DYEAR=2010
DGENRE=DTS
TTITLE0=隐形的翅膀
TTITLE1=今天你要嫁给我
TTITLE2=灰姑娘
TTITLE3=香水有毒
TTITLE4=菊花台
TTITLE5=你是我的玫瑰
TTITLE6=千里之外
TTITLE7=死了都要爱
TTITLE8=一个像夏天一个像秋天
TTITLE9=秋天不回来
TTITLE10=宁夏
TTITLE11=那一夜
TTITLE12=恋爱百分百
TTITLE13=神话
TTITLE14=小薇
EXTD=
EXTT0=
EXTT1=
EXTT2=
EXTT3=
EXTT4=
EXTT5=
EXTT6=
EXTT7=
EXTT8=
EXTT9=
EXTT10=
EXTT11=
EXTT12=
EXTT13=
EXTT14=
PLAYORDER=
